<?xml version="1.0" encoding="UTF-8" standalone="no"?>
<!DOCTYPE svg PUBLIC "-//W3C//DTD SVG 1.1//EN"
 "http://www.w3.org/Graphics/SVG/1.1/DTD/svg11.dtd">
<!-- Generated by graphviz version 3.0.0 (20220226.1711)
 -->
<!-- Pages: 1 -->
<svg width="843pt" height="355pt"
 viewBox="0.00 0.00 842.75 355.00" xmlns="http://www.w3.org/2000/svg" xmlns:xlink="http://www.w3.org/1999/xlink">
<g id="graph0" class="graph" transform="scale(1 1) rotate(0) translate(4 351)">
<polygon fill="#333333" stroke="transparent" points="-4,4 -4,-351 838.75,-351 838.75,4 -4,4"/>
<text text-anchor="middle" x="417.38" y="-9.2" font-family="Times New Roman,serif" font-size="16.00" fill="white">Network Map</text>
<!-- R6 -->
<g id="node1" class="node">
<title>R6</title>
<polygon fill="#006699" stroke="#006699" points="803.25,-223 726.25,-223 726.25,-150 803.25,-150 803.25,-223"/>
<text text-anchor="middle" x="764.75" y="-182.8" font-family="Helvetica,sans-Serif" font-size="14.00" fill="white">R6</text>
</g>
<!-- R2 -->
<g id="node2" class="node">
<title>R2</title>
<polygon fill="#006699" stroke="#006699" points="127.25,-223 50.25,-223 50.25,-150 127.25,-150 127.25,-223"/>
<text text-anchor="middle" x="88.75" y="-182.8" font-family="Helvetica,sans-Serif" font-size="14.00" fill="white">R2</text>
</g>
<!-- SW2 -->
<g id="node5" class="node">
<title>SW2</title>
<polygon fill="#006699" stroke="#006699" points="134.25,-347 43.25,-347 43.25,-274 134.25,-274 134.25,-347"/>
<text text-anchor="middle" x="88.75" y="-306.8" font-family="Helvetica,sans-Serif" font-size="14.00" fill="white">SW2</text>
</g>
<!-- R2&#45;&#45;SW2 -->
<g id="edge7" class="edge">
<title>R2&#45;&#45;SW2</title>
<path fill="none" stroke="green" stroke-dasharray="5,2" d="M88.75,-223.12C88.75,-239.01 88.75,-257.7 88.75,-273.63"/>
<text text-anchor="middle" x="138.75" y="-244.8" font-family="Courier,monospace" font-size="14.00" fill="white"> &#160;&#160;&#160;&#160;&#160;&#160;&#160;&#160;&#160;&#160;&#160;</text>
<text text-anchor="middle" x="59.75" y="-262.43" font-family="Courier,monospace" font-size="14.00" fill="white">Eth0/11</text>
<text text-anchor="middle" x="63.75" y="-226.92" font-family="Courier,monospace" font-size="14.00" fill="white">Eth0/1</text>
</g>
<!-- SW1 -->
<g id="node7" class="node">
<title>SW1</title>
<polygon fill="#006699" stroke="#006699" points="441.25,-99 350.25,-99 350.25,-26 441.25,-26 441.25,-99"/>
<text text-anchor="middle" x="395.75" y="-58.8" font-family="Helvetica,sans-Serif" font-size="14.00" fill="white">SW1</text>
</g>
<!-- R2&#45;&#45;SW1 -->
<g id="edge6" class="edge">
<title>R2&#45;&#45;SW1</title>
<path fill="none" stroke="green" stroke-dasharray="5,2" d="M122.11,-149.73C135.01,-137.74 150.56,-125.33 166.75,-117 225.75,-86.65 302.12,-73.28 350.03,-67.55"/>
<text text-anchor="middle" x="216.75" y="-120.8" font-family="Courier,monospace" font-size="14.00" fill="white"> &#160;&#160;&#160;&#160;&#160;&#160;&#160;&#160;&#160;&#160;&#160;</text>
<text text-anchor="middle" x="325.03" y="-56.35" font-family="Courier,monospace" font-size="14.00" fill="white">Eth0/2</text>
<text text-anchor="middle" x="97.11" y="-138.53" font-family="Courier,monospace" font-size="14.00" fill="white">Eth0/0</text>
</g>
<!-- R4 -->
<g id="node3" class="node">
<title>R4</title>
<polygon fill="#006699" stroke="#006699" points="280.25,-347 203.25,-347 203.25,-274 280.25,-274 280.25,-347"/>
<text text-anchor="middle" x="241.75" y="-306.8" font-family="Helvetica,sans-Serif" font-size="14.00" fill="white">R4</text>
</g>
<!-- R3 -->
<g id="node4" class="node">
<title>R3</title>
<polygon fill="#006699" stroke="#006699" points="357.25,-223 280.25,-223 280.25,-150 357.25,-150 357.25,-223"/>
<text text-anchor="middle" x="318.75" y="-182.8" font-family="Helvetica,sans-Serif" font-size="14.00" fill="white">R3</text>
</g>
<!-- R3&#45;&#45;R4 -->
<g id="edge9" class="edge">
<title>R3&#45;&#45;R4</title>
<path fill="none" stroke="green" stroke-dasharray="5,2" d="M280.08,-203.34C264.28,-211.97 247.65,-224.35 238.75,-241 233.48,-250.87 232.48,-262.73 233.33,-273.78"/>
<text text-anchor="middle" x="288.75" y="-244.8" font-family="Courier,monospace" font-size="14.00" fill="white"> &#160;&#160;&#160;&#160;&#160;&#160;&#160;&#160;&#160;&#160;&#160;</text>
<text text-anchor="middle" x="208.33" y="-262.58" font-family="Courier,monospace" font-size="14.00" fill="white">Eth0/0</text>
<text text-anchor="middle" x="255.08" y="-192.14" font-family="Courier,monospace" font-size="14.00" fill="white">Eth0/1</text>
</g>
<!-- R3&#45;&#45;SW1 -->
<g id="edge8" class="edge">
<title>R3&#45;&#45;SW1</title>
<path fill="none" stroke="green" stroke-dasharray="5,2" d="M357.29,-152.88C363.4,-146.43 369.19,-139.36 373.75,-132 379.94,-122.02 384.55,-110.13 387.9,-99.09"/>
<text text-anchor="middle" x="431.75" y="-120.8" font-family="Courier,monospace" font-size="14.00" fill="white"> &#160;&#160;&#160;&#160;&#160;&#160;&#160;&#160;&#160;&#160;&#160;</text>
<text text-anchor="middle" x="362.9" y="-102.89" font-family="Courier,monospace" font-size="14.00" fill="white">Eth0/3</text>
<text text-anchor="middle" x="382.29" y="-141.68" font-family="Courier,monospace" font-size="14.00" fill="white">Eth0/0</text>
</g>
<!-- R5 -->
<g id="node8" class="node">
<title>R5</title>
<polygon fill="#006699" stroke="#006699" points="403.25,-347 326.25,-347 326.25,-274 403.25,-274 403.25,-347"/>
<text text-anchor="middle" x="364.75" y="-306.8" font-family="Helvetica,sans-Serif" font-size="14.00" fill="white">R5</text>
</g>
<!-- R3&#45;&#45;R5 -->
<g id="edge10" class="edge">
<title>R3&#45;&#45;R5</title>
<path fill="none" stroke="green" stroke-dasharray="5,2" d="M335.44,-223.24C338,-229.13 340.53,-235.2 342.75,-241 346.78,-251.5 350.69,-263.08 354.07,-273.69"/>
<text text-anchor="middle" x="398.75" y="-244.8" font-family="Courier,monospace" font-size="14.00" fill="white"> &#160;&#160;&#160;&#160;&#160;&#160;&#160;&#160;&#160;&#160;&#160;</text>
<text text-anchor="middle" x="329.07" y="-262.49" font-family="Courier,monospace" font-size="14.00" fill="white">Eth0/0</text>
<text text-anchor="middle" x="310.44" y="-227.04" font-family="Courier,monospace" font-size="14.00" fill="white">Eth0/2</text>
</g>
<!-- R1 -->
<g id="node6" class="node">
<title>R1</title>
<polygon fill="#006699" stroke="#006699" points="619.25,-223 542.25,-223 542.25,-150 619.25,-150 619.25,-223"/>
<text text-anchor="middle" x="580.75" y="-182.8" font-family="Helvetica,sans-Serif" font-size="14.00" fill="white">R1</text>
</g>
<!-- R1&#45;&#45;SW1 -->
<g id="edge5" class="edge">
<title>R1&#45;&#45;SW1</title>
<path fill="none" stroke="green" stroke-dasharray="5,2" d="M610.44,-149.83C616.17,-138.66 618.35,-126.72 610.75,-117 590.14,-90.63 498.22,-75.39 441.45,-68.34"/>
<text text-anchor="middle" x="664.75" y="-120.8" font-family="Courier,monospace" font-size="14.00" fill="white"> &#160;&#160;&#160;&#160;&#160;&#160;&#160;&#160;&#160;&#160;&#160;</text>
<text text-anchor="middle" x="466.45" y="-57.14" font-family="Courier,monospace" font-size="14.00" fill="white">Eth0/1</text>
<text text-anchor="middle" x="585.44" y="-138.63" font-family="Courier,monospace" font-size="14.00" fill="white">Eth0/0</text>
</g>
<!-- SW1&#45;&#45;R6 -->
<g id="edge4" class="edge">
<title>SW1&#45;&#45;R6</title>
<path fill="none" stroke="green" stroke-dasharray="5,2" d="M441.26,-66.6C519.05,-72.62 673.58,-87.93 718.75,-117 731.16,-124.98 741.03,-137.63 748.39,-149.9"/>
<text text-anchor="middle" x="784.75" y="-120.8" font-family="Courier,monospace" font-size="14.00" fill="white"> &#160;&#160;&#160;&#160;&#160;&#160;&#160;&#160;&#160;&#160;&#160;</text>
<text text-anchor="middle" x="723.39" y="-138.7" font-family="Courier,monospace" font-size="14.00" fill="white">Eth0/1</text>
<text text-anchor="middle" x="466.26" y="-70.4" font-family="Courier,monospace" font-size="14.00" fill="white">Eth0/5</text>
</g>
<!-- SW1&#45;&#45;R2 -->
<g id="edge2" class="edge">
<title>SW1&#45;&#45;R2</title>
<path fill="none" stroke="green" stroke-dasharray="5,2" d="M350.04,-63.06C260.9,-63.27 68.93,-69.4 27.75,-117 14,-132.9 30.65,-150.61 50,-164.04"/>
<text text-anchor="middle" x="77.75" y="-120.8" font-family="Courier,monospace" font-size="14.00" fill="white"> &#160;&#160;&#160;&#160;&#160;&#160;&#160;&#160;&#160;&#160;&#160;</text>
<text text-anchor="middle" x="25" y="-152.84" font-family="Courier,monospace" font-size="14.00" fill="white">Eth0/0</text>
<text text-anchor="middle" x="325.04" y="-66.86" font-family="Courier,monospace" font-size="14.00" fill="white">Eth0/2</text>
</g>
<!-- SW1&#45;&#45;R3 -->
<g id="edge3" class="edge">
<title>SW1&#45;&#45;R3</title>
<path fill="none" stroke="green" stroke-dasharray="5,2" d="M349.98,-70.85C322.85,-77.82 290.58,-91.25 273.75,-117 266.05,-128.79 271.03,-141.71 280.04,-153.12"/>
<text text-anchor="middle" x="323.75" y="-120.8" font-family="Courier,monospace" font-size="14.00" fill="white"> &#160;&#160;&#160;&#160;&#160;&#160;&#160;&#160;&#160;&#160;&#160;</text>
<text text-anchor="middle" x="255.04" y="-141.92" font-family="Courier,monospace" font-size="14.00" fill="white">Eth0/0</text>
<text text-anchor="middle" x="324.98" y="-74.65" font-family="Courier,monospace" font-size="14.00" fill="white">Eth0/3</text>
</g>
<!-- SW1&#45;&#45;R1 -->
<g id="edge1" class="edge">
<title>SW1&#45;&#45;R1</title>
<path fill="none" stroke="green" stroke-dasharray="5,2" d="M441.56,-89.67C455.87,-98.13 471.62,-107.73 485.75,-117 504.62,-129.38 524.99,-143.9 542.01,-156.38"/>
<text text-anchor="middle" x="556.75" y="-120.8" font-family="Courier,monospace" font-size="14.00" fill="white"> &#160;&#160;&#160;&#160;&#160;&#160;&#160;&#160;&#160;&#160;&#160;</text>
<text text-anchor="middle" x="517.01" y="-145.18" font-family="Courier,monospace" font-size="14.00" fill="white">Eth0/0</text>
<text text-anchor="middle" x="466.56" y="-93.47" font-family="Courier,monospace" font-size="14.00" fill="white">Eth0/1</text>
</g>
</g>
</svg>
